<?xml version="1.0" encoding="utf-8"?>
<!-- Generator: Adobe Illustrator 22.0.1, SVG Export Plug-In . SVG Version: 6.00 Build 0)  -->
<svg version="1.1" xmlns="http://www.w3.org/2000/svg" xmlns:xlink="http://www.w3.org/1999/xlink" x="0px" y="0px"
	 viewBox="0 0 500 402" style="enable-background:new 0 0 500 402;" xml:space="preserve">
<style type="text/css">
	.st0{display:none;}
	.st1{display:inline;fill:#E9E7E5;}
	.st2{fill:#454258;}
	.st3{opacity:5.000000e-02;}
	.st4{opacity:0.8;fill:#FFFFFF;}
	.st5{fill:#FFFFFF;}
	.st6{fill:#DBE2E8;}
	.st7{fill:#FF4D43;}
	.st8{display:inline;}
</style>
<g id="BACKGROUND" class="st0">
	<rect y="-49" class="st1" width="500" height="500"/>
</g>
<g id="OBJECTS">
	<g>
		<g>
			<g>
				<path class="st2" d="M460.2,368.1c0,4.1-2.7,7.5-6.4,7.5H53.4c-3.7,0-7.1-3.4-7.1-7.5V95c0-4.1,3.4-7.1,7.1-7.1h400.4
					c3.7,0,6.4,3,6.4,7.1V368.1z"/>
				<path class="st2" d="M460.2,115.5V92.3c0-4.1-2.7-7.1-6.4-7.1H53.4c-3.7,0-7.1,3-7.1,7.1v23.2H460.2z"/>
				<g>
					<defs>
						<path id="SVGID_1_" d="M454.1,361.4c0,4-2.6,7.4-6.2,7.4H59.2c-3.6,0-6.9-3.4-6.9-7.4V98.6c0-4,3.3-7,6.9-7h388.7
							c3.6,0,6.2,3,6.2,7V361.4z"/>
					</defs>
					<use xlink:href="#SVGID_1_"  style="overflow:visible;fill:#FF4D43;"/>
					<clipPath id="SVGID_2_">
						<use xlink:href="#SVGID_1_"  style="overflow:visible;"/>
					</clipPath>
				</g>
			</g>
			<polygon class="st3" points="59.2,368.8 454.1,366.9 454.1,91.6 			"/>
			<g>
				
					<ellipse transform="matrix(0.9985 -5.563192e-02 5.563192e-02 0.9985 -11.5666 14.4123)" class="st4" cx="253.1" cy="215" rx="53.5" ry="53.5"/>
				<polygon class="st5" points="238.9,186.6 238.9,243.3 281.7,215 				"/>
			</g>
			<g>
				<g>
					<rect x="51.5" y="328.3" class="st2" width="403" height="45.7"/>
				</g>
				<g>
					<rect x="64.5" y="335.6" class="st6" width="375.1" height="2.1"/>
					<rect x="64.5" y="335.6" class="st7" width="153.2" height="2.1"/>
					<g>
						<polygon class="st5" points="136.4,347.2 136.4,361.2 146.3,354.2 						"/>
						<rect x="148" y="347.2" class="st5" width="2.3" height="14"/>
					</g>
					<g>
						<polygon class="st5" points="108.2,347.2 108.2,361.2 118.1,354.2 						"/>
					</g>
					<g>
						<polygon class="st5" points="89.9,347.2 89.9,361.2 80,354.2 						"/>
						
							<rect x="75.9" y="347.2" transform="matrix(-1 -1.224647e-16 1.224647e-16 -1 154.2114 708.3821)" class="st5" width="2.3" height="14"/>
					</g>
					<path class="st5" d="M369,351.6l-0.5-1.1c0,0,1.1-2.4,1-2.5l-1.4-1.4c-0.1-0.1-2.5,1-2.5,1l-1.1-0.4c0,0-1-2.4-1.1-2.4h-2
						c-0.1,0-1,2.4-1,2.4l-1.1,0.4c0,0-2.5-1-2.6-1l-1.4,1.4c-0.1,0.1,1,2.5,1,2.5l-0.5,1.1c0,0-2.5,1-2.5,1.1v2c0,0.1,2.5,1,2.5,1
						l0.5,1.1c0,0-1.1,2.4-1,2.5l1.4,1.4c0.1,0.1,2.5-1,2.5-1l1.1,0.4c0,0,1,2.4,1.1,2.4h2c0.1,0,1-2.4,1-2.4l1.1-0.4
						c0,0,2.5,1,2.5,1l1.4-1.4c0.1-0.1-1-2.5-1-2.5l0.5-1.1c0,0,2.5-1,2.5-1.1v-1.9C371.4,352.5,369,351.6,369,351.6z M365.3,353.7
						c0,1.6-1.3,2.8-2.9,2.8c-1.6,0-2.9-1.3-2.9-2.8c0-1.6,1.3-2.8,2.9-2.8C364,350.8,365.3,352.1,365.3,353.7z"/>
					<path class="st5" d="M405,360.3h-20.7v-13.6H405V360.3z M385.8,358.8h17.7v-10.6h-17.7V358.8z"/>
					<g>
						<polygon class="st5" points="427.3,346.8 432.5,346.8 432.5,352.1 434.1,352.1 434.1,345.3 427.3,345.3 						"/>
						<polygon class="st5" points="419.1,352.1 419.1,346.8 424.3,346.8 424.3,345.3 417.5,345.3 417.5,352.1 						"/>
						<polygon class="st5" points="432.5,355 432.5,360.3 427.3,360.3 427.3,361.8 434.1,361.8 434.1,355 						"/>
						<polygon class="st5" points="424.3,360.3 419.1,360.3 419.1,355 417.5,355 417.5,361.8 424.3,361.8 						"/>
					</g>
					<path class="st7" d="M221.4,336.6c0,2-1.6,3.6-3.6,3.6c-2,0-3.6-1.6-3.6-3.6c0-2,1.6-3.6,3.6-3.6
						C219.8,333,221.4,334.6,221.4,336.6z"/>
				</g>
			</g>
		</g>
	</g>
	<g>
		<path class="st7" d="M222.3,31c0-0.6-0.1-1.2-0.1-1.8c-0.2-2.6-0.5-5.5-2.2-7.5c-1.4-1.7-3.7-2.1-5.8-2.4
			c-2.7-0.3-5.4-0.5-8.1-0.6c-5.5-0.2-11-0.1-16.4,0c-2.8,0.1-5.6,0.1-8.4,0.3c-3.4,0.3-7,0.8-8.6,4.2c-1.4,3.1-1.3,7-1.3,10.3
			c0,3,0,6,0.1,8.9c0.2,3.9,0.4,8.9,4.6,10.6c2.2,0.9,4.9,1.1,7.3,1.3c2.5,0.2,5.1,0.1,7.6,0.2c5.3,0.1,10.6-0.1,15.9-0.2
			c3.7-0.1,7.5-0.1,11-1.3c3-1,3.8-4.3,4.2-7.2c0.4-2.8,0.3-5.7,0.3-8.6C222.3,35.3,222.4,33.2,222.3,31z M191.7,44.4
			c0-5.2,0-10.3,0-15.5c4.4,2.6,8.7,5.1,13.2,7.8C200.5,39.2,196.1,41.8,191.7,44.4z"/>
		<g>
			<path class="st2" d="M265.9,28.7c1.5,0,2.9,0,4.4,0c0,7.8,0,15.6,0,23.5c-1.4,0-2.8,0-4.3,0c0-0.8,0-1.6,0-2.5
				c-0.4,0.4-0.7,0.7-1,1c-1,1-2.1,1.8-3.6,1.8c-1.4,0-2.4-0.6-2.8-1.9c-0.3-0.9-0.4-1.9-0.4-2.9c-0.1-6.2-0.1-12.5-0.1-18.7
				c0-0.1,0-0.2,0-0.3c1.4,0,2.8,0,4.3,0c0,0.2,0,0.4,0,0.6c0,6,0.1,12,0.1,18c0,0.2,0,0.4,0,0.5c0.1,0.7,0.6,1.1,1.3,0.8
				c0.5-0.2,1-0.7,1.5-1c0.6-0.5,0.8-1.2,0.8-2c-0.1-5.4-0.1-10.8-0.1-16.1C265.9,29.3,265.9,29,265.9,28.7z"/>
			<path class="st2" d="M243.2,20.8c-0.8,2.6-1.5,5.1-2.3,7.6c-1.1,3.5-2.1,7.1-3.2,10.6c-0.1,0.3-0.1,0.5-0.1,0.8
				c0,3.9,0,7.8,0.1,11.6c0,0.2,0,0.4,0,0.6c-1.5,0-3,0-4.5,0c0-0.2,0-0.4,0-0.6c0-3.9,0-7.8-0.1-11.7c0-0.5-0.1-0.9-0.3-1.4
				c-1.8-5.7-3.6-11.4-5.4-17.1c-0.1-0.2-0.1-0.3-0.2-0.6c1.5,0,3,0,4.5,0c0.1,0,0.3,0.3,0.4,0.4c0.7,2.5,1.4,5.1,2.1,7.6
				c0.4,1.3,0.7,2.7,1.2,4c0.2-0.9,0.5-1.8,0.7-2.6c0.8-3,1.5-6,2.3-9c0.1-0.4,0.2-0.5,0.6-0.5C240.3,20.9,241.7,20.8,243.2,20.8z"
				/>
			<path class="st2" d="M242.5,40.4c0-1.8-0.1-3.6,0-5.4c0-0.9,0.2-1.8,0.5-2.6c0.7-2.1,2.1-3.4,4.3-3.8c2.5-0.4,4.7,0.1,6.2,2.3
				c0.8,1.1,1.1,2.4,1.2,3.7c0.1,1.1,0.1,2.3,0.1,3.4c0,2.5,0,5,0,7.5c0,0.9-0.1,1.8-0.4,2.6c-0.7,2.6-3,4.3-5.7,4.3
				c-2.7,0-5.2-1.7-5.8-4.3c-0.3-1.2-0.4-2.4-0.5-3.6C242.4,43.3,242.5,41.9,242.5,40.4C242.5,40.4,242.5,40.4,242.5,40.4z
				 M250.6,40.7C250.6,40.7,250.5,40.7,250.6,40.7c-0.1-1.8,0-3.7-0.1-5.5c0-0.5-0.1-1-0.2-1.4c-0.2-0.8-0.9-1.2-1.7-1.2
				c-0.8,0-1.4,0.5-1.7,1.3c-0.1,0.4-0.2,0.9-0.2,1.3c0,3.6,0,7.2,0.1,10.8c0,0.5,0.1,1,0.2,1.5c0.2,0.8,0.9,1.2,1.7,1.2
				c0.8,0,1.4-0.5,1.6-1.3c0.1-0.5,0.2-1,0.2-1.5C250.6,44.2,250.6,42.5,250.6,40.7z"/>
			<path class="st2" d="M304.5,30.7c0.9-0.6,1.7-1.4,2.6-1.9c2.3-1.2,4.7-0.1,5.3,2.4c0.3,1.3,0.5,2.7,0.5,4.1c0.1,3.5,0,6.9,0,10.4
				c0,1.3-0.1,2.6-0.4,3.8c-0.6,2.7-3.2,3.8-5.7,2.4c-0.8-0.5-1.5-1.2-2.3-1.8c0,0.4,0,0.8,0,1.3c0,0.9,0.1,0.8-0.8,0.8
				c-0.9,0-1.8,0-2.8,0c-0.7,0-0.7,0-0.7-0.7c0-5.5,0-11,0-16.6c0-4.6,0-9.1,0-13.7c0-0.5,0.2-0.6,0.6-0.6c1,0,2.1,0,3.1,0
				c0.4,0,0.5,0.1,0.5,0.5c0,2.9,0,5.8,0,8.7C304.5,30.2,304.5,30.5,304.5,30.7z M304.5,40.5C304.5,40.5,304.5,40.5,304.5,40.5
				c0,2.1,0,4.2-0.1,6.3c0,0.8,0.3,1.3,1,1.6c0.2,0.1,0.4,0.2,0.6,0.2c1,0.3,1.8-0.1,2.1-1.1c0.1-0.5,0.2-1,0.2-1.5
				c0-3.7,0-7.4,0-11.1c0-0.5-0.1-1-0.2-1.4c-0.2-0.7-0.6-1-1.4-1c-0.7,0-1.3,0.3-1.8,0.6c-0.3,0.2-0.5,0.5-0.5,0.9
				C304.5,36.1,304.5,38.3,304.5,40.5z"/>
			<path class="st2" d="M292.3,49.9c-0.6,0.5-1,1-1.5,1.4c-0.8,0.7-1.7,1.2-2.8,1.3c-1.8,0.1-3-0.9-3.3-2.8
				c-0.1-0.8-0.2-1.6-0.2-2.4c0-6,0-12,0-18c0-0.5,0.1-0.7,0.6-0.7c1.1,0,2.2,0,3.3,0c0.5,0,0.6,0.1,0.6,0.6c0,5.8,0,11.6,0,17.4
				c0,0.3,0,0.6,0,0.9c0,0.7,0.5,1.1,1.2,0.9c1-0.2,2.2-1.7,2.2-2.7c0-5.5,0-11,0-16.5c0-0.7,0-0.7,0.7-0.7c1.1,0,2.2,0,3.3,0
				c0.4,0,0.6,0.1,0.6,0.5c0,7.5,0,15,0,22.5c0,0.4-0.1,0.5-0.5,0.5c-1.2,0-2.4,0-3.6,0c-0.4,0-0.5-0.1-0.5-0.5
				C292.3,51.2,292.3,50.6,292.3,49.9z"/>
			<path class="st2" d="M324,44c1.5,0,2.8,0,4.2,0c0.1,0,0.3,0.2,0.3,0.3c0,1.7,0.1,3.5-0.8,5.1c-1.1,2-2.8,3.1-5.1,3.2
				c-2.9,0.1-5.1-1.1-6.3-3.5c-0.5-1.1-0.8-2.4-0.8-3.6c0-3.5,0-6.9,0.1-10.4c0.1-2.1,0.8-4,2.5-5.4c2.9-2.4,8.9-1.8,10.1,3.6
				c0.2,0.9,0.3,1.9,0.3,2.8c0,1.5,0,3,0,4.5c0,0.7,0,0.7-0.7,0.7c-2.4,0-4.7,0-7.1,0c-0.2,0-0.4,0-0.6,0c0,0.1-0.1,0.1-0.1,0.2
				c0,1.7,0,3.5,0.1,5.2c0,0.3,0.1,0.7,0.2,1c0.3,0.8,0.9,1.1,1.8,1.1c0.8,0,1.4-0.4,1.6-1.2c0.2-0.6,0.2-1.3,0.2-2
				C324,45,324,44.6,324,44z M324.1,37.7c-0.1-1.4-0.1-2.7-0.2-4c-0.1-1-0.7-1.3-1.7-1.3c-1.1,0-1.7,0.4-1.8,1.3
				c-0.1,1.2-0.1,2.4-0.1,3.6c0,0.1,0.2,0.3,0.3,0.3C321.6,37.7,322.8,37.7,324.1,37.7z"/>
			<path class="st2" d="M275.2,25.4c-1.1,0-2.2,0-3.3,0c-0.5,0-1.2,0.1-1.5-0.1c-0.3-0.2-0.1-0.9-0.1-1.4c0-0.8,0-1.6,0-2.4
				c0-0.4,0.1-0.5,0.5-0.5c3.6,0,7.1,0,10.7,0c1,0,2,0,3,0c0.4,0,0.5,0.1,0.5,0.5c0,1.2,0,2.3,0,3.5c0,0.4-0.1,0.5-0.5,0.5
				c-1.2,0-2.5,0-3.7,0c-0.3,0-0.5,0-0.9,0c0,0.4,0,0.7,0,1c0,8.4,0,16.8,0,25.1c0,0.8,0,0.8-0.8,0.8c-1.1,0-2.2,0-3.2,0
				c-0.7,0-0.7,0-0.7-0.7c0-4.7,0-9.4,0-14.1c0-3.8,0-7.7,0-11.5C275.2,25.8,275.2,25.6,275.2,25.4z"/>
		</g>
	</g>
</g>
<g id="DESIGNED_BY_FREEPIK" class="st0">
	<g id="XMLID_76_" class="st8">
		<g id="XMLID_929_">
			<path id="XMLID_958_" class="st2" d="M181.1,423.1c-0.2,0-0.4,0.1-0.6,0.3c-0.1,0.2-0.2,0.4-0.2,0.8v2.4
				c-0.3-0.3-0.6-0.6-0.9-0.7c-0.3-0.2-0.7-0.2-1.2-0.2c-0.8,0-1.5,0.3-2,0.8c-0.5,0.6-0.7,1.4-0.7,2.4c0,0.5,0.1,0.9,0.2,1.3
				c0.1,0.4,0.3,0.8,0.5,1.1c0.2,0.3,0.5,0.5,0.9,0.7c0.3,0.2,0.7,0.2,1.1,0.2c0.3,0,0.6,0,0.8-0.1c0.2-0.1,0.5-0.2,0.7-0.4
				c0.2-0.2,0.4-0.4,0.6-0.6v0.2c0,0.3,0.1,0.5,0.2,0.7c0.1,0.2,0.3,0.2,0.5,0.2c0.2,0,0.4-0.1,0.6-0.2c0.1-0.2,0.2-0.4,0.2-0.7
				v-7.1c0-0.3-0.1-0.5-0.2-0.7C181.5,423.2,181.3,423.1,181.1,423.1z M180,430c-0.1,0.3-0.3,0.5-0.6,0.7c-0.2,0.1-0.5,0.2-0.8,0.2
				c-0.3,0-0.5-0.1-0.8-0.2c-0.2-0.2-0.4-0.4-0.6-0.7c-0.1-0.3-0.2-0.7-0.2-1.1c0-0.4,0.1-0.8,0.2-1.1c0.1-0.3,0.3-0.6,0.5-0.7
				c0.2-0.2,0.5-0.3,0.8-0.3c0.3,0,0.5,0.1,0.8,0.2c0.2,0.2,0.4,0.4,0.6,0.7c0.1,0.3,0.2,0.7,0.2,1.1
				C180.2,429.3,180.2,429.7,180,430z"/>
			<path id="XMLID_954_" class="st2" d="M188.5,429.1c0.2-0.1,0.4-0.4,0.4-0.8c0-0.4-0.1-0.9-0.3-1.3c-0.2-0.4-0.6-0.8-1-1
				c-0.5-0.3-1-0.4-1.6-0.4c-0.5,0-0.9,0.1-1.3,0.2c-0.4,0.2-0.7,0.4-1,0.7c-0.3,0.3-0.5,0.6-0.6,1.1c-0.1,0.4-0.2,0.9-0.2,1.3
				c0,1,0.3,1.8,0.9,2.4c0.6,0.6,1.4,0.9,2.4,0.9c0.5,0,0.9-0.1,1.2-0.2c0.4-0.1,0.6-0.3,0.9-0.4c0.2-0.2,0.4-0.4,0.5-0.6
				c0.1-0.2,0.2-0.4,0.2-0.5c0-0.2-0.1-0.3-0.2-0.4c-0.1-0.1-0.2-0.1-0.4-0.1c-0.2,0-0.3,0-0.4,0.1c-0.2,0.2-0.4,0.3-0.5,0.5
				c-0.1,0.1-0.3,0.2-0.4,0.3c-0.2,0.1-0.3,0.2-0.5,0.2c-0.2,0-0.3,0.1-0.5,0.1c-0.3,0-0.6-0.1-0.8-0.2c-0.2-0.1-0.4-0.4-0.6-0.6
				c-0.1-0.3-0.2-0.6-0.2-1h3.2C187.9,429.2,188.2,429.2,188.5,429.1z M184.3,428.3c0.1-0.5,0.2-1,0.5-1.2c0.3-0.3,0.6-0.4,1-0.4
				c0.4,0,0.8,0.1,1,0.4c0.3,0.3,0.4,0.7,0.4,1.2H184.3z"/>
			<path id="XMLID_952_" class="st2" d="M193.9,428.6c-0.3-0.2-0.7-0.3-1.2-0.4c-0.4-0.1-0.8-0.2-1-0.3c-0.2-0.1-0.4-0.2-0.6-0.3
				c-0.1-0.1-0.2-0.2-0.2-0.4c0-0.2,0.1-0.3,0.3-0.5c0.2-0.1,0.4-0.2,0.7-0.2c0.3,0,0.5,0,0.7,0.1c0.2,0.1,0.3,0.2,0.4,0.4
				c0.2,0.2,0.3,0.3,0.4,0.4c0.1,0.1,0.3,0.1,0.4,0.1c0.2,0,0.4-0.1,0.5-0.2c0.1-0.1,0.2-0.3,0.2-0.5c0-0.2-0.1-0.3-0.2-0.5
				c-0.1-0.2-0.3-0.3-0.5-0.5c-0.2-0.1-0.5-0.3-0.8-0.4c-0.3-0.1-0.7-0.1-1.1-0.1c-0.5,0-1,0.1-1.4,0.3c-0.4,0.2-0.7,0.4-0.9,0.7
				c-0.2,0.3-0.3,0.6-0.3,0.9c0,0.4,0.1,0.7,0.3,0.9c0.2,0.2,0.5,0.5,0.8,0.6c0.4,0.2,0.8,0.3,1.4,0.4c0.5,0.1,0.8,0.2,1.1,0.4
				c0.2,0.1,0.3,0.3,0.3,0.6c0,0.2-0.1,0.4-0.3,0.5c-0.2,0.1-0.5,0.2-0.8,0.2c-0.4,0-0.7-0.1-0.9-0.2c-0.2-0.1-0.4-0.4-0.6-0.6
				c-0.1-0.1-0.2-0.3-0.3-0.4c-0.1-0.1-0.2-0.1-0.4-0.1c-0.2,0-0.4,0.1-0.5,0.2c-0.1,0.1-0.2,0.3-0.2,0.5c0,0.3,0.1,0.5,0.3,0.8
				c0.2,0.3,0.5,0.5,0.9,0.7c0.4,0.2,0.9,0.3,1.5,0.3c0.6,0,1.1-0.1,1.6-0.2c0.4-0.2,0.7-0.4,1-0.7c0.2-0.3,0.3-0.7,0.3-1.1
				c0-0.3-0.1-0.6-0.2-0.8C194.4,429,194.2,428.8,193.9,428.6z"/>
			<path id="XMLID_950_" class="st2" d="M196.5,425.5c-0.2,0-0.4,0.1-0.6,0.2c-0.1,0.2-0.2,0.4-0.2,0.7v4.6c0,0.3,0.1,0.6,0.2,0.7
				c0.1,0.2,0.3,0.3,0.6,0.3c0.2,0,0.4-0.1,0.6-0.2c0.2-0.2,0.2-0.4,0.2-0.7v-4.7c0-0.3-0.1-0.5-0.2-0.7
				C196.9,425.6,196.7,425.5,196.5,425.5z"/>
			<path id="XMLID_949_" class="st2" d="M196.5,423.2c-0.2,0-0.4,0.1-0.6,0.2c-0.2,0.1-0.2,0.3-0.2,0.6c0,0.3,0.1,0.4,0.2,0.6
				c0.2,0.1,0.4,0.2,0.6,0.2c0.2,0,0.4-0.1,0.6-0.2c0.2-0.1,0.2-0.3,0.2-0.6c0-0.3-0.1-0.5-0.2-0.6
				C196.9,423.3,196.7,423.2,196.5,423.2z"/>
			<path id="XMLID_945_" class="st2" d="M203.6,425.5c-0.2,0-0.4,0.1-0.5,0.2c-0.1,0.2-0.2,0.4-0.2,0.7v0.2
				c-0.3-0.4-0.6-0.7-0.9-0.8c-0.3-0.2-0.7-0.3-1.2-0.3c-0.4,0-0.7,0.1-1.1,0.2c-0.3,0.1-0.6,0.3-0.8,0.6c-0.2,0.3-0.4,0.6-0.6,1
				c-0.1,0.4-0.2,0.8-0.2,1.3c0,0.7,0.1,1.2,0.3,1.7c0.2,0.5,0.5,0.9,0.9,1.2c0.4,0.3,0.9,0.4,1.4,0.4c0.5,0,0.8-0.1,1.2-0.3
				c0.3-0.2,0.6-0.4,0.9-0.8c0,0.5,0,0.9,0,1.2c0,0.2-0.1,0.5-0.2,0.7c-0.1,0.2-0.3,0.4-0.5,0.5c-0.2,0.1-0.6,0.2-1,0.2
				c-0.2,0-0.4,0-0.5-0.1c-0.2,0-0.3-0.1-0.4-0.2c-0.1-0.1-0.2-0.2-0.3-0.3c-0.1-0.1-0.2-0.2-0.3-0.3c-0.2-0.2-0.4-0.3-0.6-0.3
				c-0.2,0-0.4,0.1-0.5,0.2c-0.1,0.1-0.2,0.3-0.2,0.5c0,0.3,0.1,0.5,0.4,0.8c0.2,0.2,0.6,0.4,1,0.6c0.4,0.2,0.9,0.2,1.5,0.2
				c0.6,0,1.1-0.1,1.5-0.2c0.4-0.1,0.7-0.3,1-0.6c0.3-0.3,0.4-0.6,0.6-1c0.1-0.4,0.2-0.9,0.2-1.4v-4.7c0-0.4-0.1-0.7-0.2-0.9
				C204.1,425.6,203.9,425.5,203.6,425.5z M202.6,429.9c-0.2,0.3-0.3,0.5-0.6,0.7c-0.2,0.1-0.5,0.2-0.8,0.2c-0.5,0-0.8-0.2-1.1-0.5
				c-0.3-0.3-0.4-0.8-0.4-1.5c0-0.6,0.1-1.2,0.4-1.5s0.6-0.5,1.1-0.5c0.5,0,0.9,0.2,1.1,0.6c0.3,0.4,0.4,0.9,0.4,1.5
				C202.8,429.3,202.7,429.6,202.6,429.9z"/>
			<path id="XMLID_944_" class="st2" d="M211,426.6c-0.2-0.3-0.4-0.6-0.8-0.8c-0.3-0.2-0.7-0.3-1.1-0.3c-0.4,0-0.8,0.1-1.2,0.3
				c-0.3,0.2-0.7,0.5-0.9,0.8v-0.2c0-0.2,0-0.4-0.1-0.5c-0.1-0.1-0.2-0.2-0.3-0.3c-0.1-0.1-0.2-0.1-0.4-0.1c-0.2,0-0.4,0.1-0.6,0.2
				c-0.1,0.2-0.2,0.4-0.2,0.7v4.7c0,0.3,0.1,0.6,0.2,0.7c0.2,0.2,0.3,0.3,0.6,0.3c0.2,0,0.4-0.1,0.6-0.2c0.2-0.2,0.2-0.4,0.2-0.7v-2
				c0-0.7,0-1.1,0.1-1.4c0.1-0.3,0.3-0.5,0.5-0.7c0.2-0.2,0.5-0.3,0.8-0.3c0.4,0,0.7,0.1,0.9,0.4c0.1,0.3,0.2,0.7,0.2,1.2v2.7
				c0,0.3,0.1,0.6,0.2,0.7c0.2,0.2,0.3,0.3,0.6,0.3c0.2,0,0.4-0.1,0.6-0.2c0.1-0.2,0.2-0.4,0.2-0.7v-3c0-0.4,0-0.6,0-0.9
				C211.2,427,211.1,426.8,211,426.6z"/>
			<path id="XMLID_939_" class="st2" d="M217.8,429.1c0.2-0.1,0.4-0.4,0.4-0.8c0-0.4-0.1-0.9-0.3-1.3c-0.2-0.4-0.6-0.8-1-1
				c-0.5-0.3-1-0.4-1.6-0.4c-0.5,0-0.9,0.1-1.3,0.2c-0.4,0.2-0.7,0.4-1,0.7c-0.3,0.3-0.5,0.6-0.6,1.1c-0.1,0.4-0.2,0.9-0.2,1.3
				c0,1,0.3,1.8,0.9,2.4c0.6,0.6,1.4,0.9,2.4,0.9c0.5,0,0.9-0.1,1.2-0.2c0.4-0.1,0.6-0.3,0.9-0.4c0.2-0.2,0.4-0.4,0.5-0.6
				c0.1-0.2,0.2-0.4,0.2-0.5c0-0.2-0.1-0.3-0.2-0.4c-0.1-0.1-0.2-0.1-0.4-0.1c-0.2,0-0.3,0-0.4,0.1c-0.2,0.2-0.4,0.3-0.5,0.5
				c-0.1,0.1-0.3,0.2-0.4,0.3c-0.2,0.1-0.3,0.2-0.5,0.2c-0.2,0-0.3,0.1-0.5,0.1c-0.3,0-0.6-0.1-0.8-0.2c-0.2-0.1-0.4-0.4-0.6-0.6
				c-0.1-0.3-0.2-0.6-0.2-1h3.2C217.3,429.2,217.6,429.2,217.8,429.1z M213.7,428.3c0.1-0.5,0.2-1,0.5-1.2c0.3-0.3,0.6-0.4,1-0.4
				c0.4,0,0.8,0.1,1,0.4c0.3,0.3,0.4,0.7,0.4,1.2H213.7z"/>
			<path id="XMLID_936_" class="st2" d="M224.2,423.1c-0.2,0-0.4,0.1-0.6,0.3c-0.1,0.2-0.2,0.4-0.2,0.8v2.4
				c-0.3-0.3-0.6-0.6-0.9-0.7c-0.3-0.2-0.7-0.2-1.2-0.2c-0.8,0-1.5,0.3-2,0.8c-0.5,0.6-0.7,1.4-0.7,2.4c0,0.5,0.1,0.9,0.2,1.3
				c0.1,0.4,0.3,0.8,0.5,1.1c0.2,0.3,0.5,0.5,0.9,0.7c0.3,0.2,0.7,0.2,1.1,0.2c0.3,0,0.6,0,0.8-0.1c0.2-0.1,0.5-0.2,0.7-0.4
				c0.2-0.2,0.4-0.4,0.6-0.6v0.2c0,0.3,0.1,0.5,0.2,0.7c0.1,0.2,0.3,0.2,0.5,0.2c0.2,0,0.4-0.1,0.6-0.2c0.1-0.2,0.2-0.4,0.2-0.7
				v-7.1c0-0.3-0.1-0.5-0.2-0.7C224.6,423.2,224.5,423.1,224.2,423.1z M223.1,430c-0.1,0.3-0.3,0.5-0.6,0.7
				c-0.2,0.1-0.5,0.2-0.8,0.2c-0.3,0-0.5-0.1-0.8-0.2c-0.2-0.2-0.4-0.4-0.6-0.7c-0.1-0.3-0.2-0.7-0.2-1.1c0-0.4,0.1-0.8,0.2-1.1
				c0.1-0.3,0.3-0.6,0.5-0.7c0.2-0.2,0.5-0.3,0.8-0.3c0.3,0,0.5,0.1,0.8,0.2c0.2,0.2,0.4,0.4,0.6,0.7c0.1,0.3,0.2,0.7,0.2,1.1
				C223.4,429.3,223.3,429.7,223.1,430z"/>
			<path id="XMLID_933_" class="st2" d="M233.6,425.9c-0.4-0.3-0.9-0.4-1.4-0.4c-0.5,0-0.9,0.1-1.2,0.3c-0.3,0.2-0.6,0.4-0.9,0.7
				v-2.5c0-0.3-0.1-0.5-0.2-0.7c-0.1-0.2-0.3-0.2-0.6-0.2c-0.2,0-0.4,0.1-0.6,0.3c-0.1,0.2-0.2,0.4-0.2,0.7v7.1
				c0,0.3,0.1,0.5,0.2,0.7c0.1,0.2,0.3,0.2,0.5,0.2c0.2,0,0.4-0.1,0.6-0.2c0.1-0.2,0.2-0.4,0.2-0.7V431c0.2,0.2,0.3,0.4,0.4,0.5
				c0.1,0.1,0.2,0.2,0.4,0.3c0.2,0.1,0.3,0.2,0.6,0.2c0.2,0.1,0.5,0.1,0.7,0.1c0.4,0,0.8-0.1,1.1-0.2c0.3-0.2,0.6-0.4,0.9-0.7
				c0.2-0.3,0.4-0.7,0.5-1.1c0.1-0.4,0.2-0.9,0.2-1.3c0-0.7-0.1-1.2-0.3-1.7C234.3,426.6,234,426.2,233.6,425.9z M232.8,430.3
				c-0.3,0.4-0.6,0.5-1.1,0.5c-0.5,0-0.9-0.2-1.2-0.5c-0.3-0.3-0.4-0.8-0.4-1.5c0-0.4,0.1-0.8,0.2-1.1c0.1-0.3,0.3-0.6,0.6-0.7
				c0.2-0.2,0.5-0.3,0.8-0.3c0.3,0,0.6,0.1,0.8,0.3c0.2,0.2,0.4,0.4,0.5,0.7c0.1,0.3,0.2,0.7,0.2,1.1
				C233.2,429.5,233.1,430,232.8,430.3z"/>
			<path id="XMLID_931_" class="st2" d="M240.5,425.6c-0.1-0.1-0.2-0.1-0.4-0.1c-0.2,0-0.3,0-0.4,0.1c-0.1,0.1-0.2,0.2-0.3,0.3
				c-0.1,0.2-0.2,0.4-0.3,0.7l-1.3,3.7l-1.4-4c-0.1-0.3-0.2-0.5-0.3-0.6c-0.1-0.1-0.3-0.2-0.5-0.2c-0.1,0-0.3,0-0.4,0.1
				c-0.1,0.1-0.2,0.2-0.3,0.3c-0.1,0.1-0.1,0.2-0.1,0.4c0,0.1,0.1,0.3,0.2,0.6l2,5l-0.1,0.4c-0.1,0.3-0.2,0.5-0.3,0.6
				c-0.1,0.1-0.2,0.2-0.3,0.3c-0.1,0.1-0.3,0.1-0.4,0.1c-0.1,0-0.2,0-0.3,0c-0.1,0-0.2,0-0.3,0c-0.2,0-0.4,0.1-0.5,0.2
				c-0.1,0.1-0.2,0.2-0.2,0.4c0,0.3,0.1,0.5,0.4,0.6c0.2,0.1,0.6,0.2,1.1,0.2c0.5,0,0.9-0.1,1.2-0.2c0.3-0.1,0.5-0.4,0.7-0.6
				c0.2-0.3,0.4-0.7,0.5-1.1l2.1-5.5c0.1-0.1,0.1-0.3,0.1-0.4c0-0.1,0.1-0.2,0.1-0.3c0-0.1,0-0.2-0.1-0.3
				C240.7,425.8,240.6,425.7,240.5,425.6z"/>
		</g>
		<g id="XMLID_365_">
			<g id="XMLID_380_">
				<path id="XMLID_928_" class="st2" d="M262.9,423.1c-0.5,0-1,0.1-1.3,0.2c-0.3,0.1-0.5,0.4-0.7,0.7c-0.1,0.3-0.2,0.7-0.2,1.2v0.5
					h-0.4c-0.5,0-0.8,0.2-0.8,0.6c0,0.2,0.1,0.3,0.2,0.4c0.1,0.1,0.3,0.2,0.6,0.2h0.4v4.3c0,0.3,0.1,0.6,0.2,0.7
					c0.2,0.2,0.3,0.3,0.6,0.3c0.2,0,0.4-0.1,0.6-0.3c0.2-0.2,0.2-0.4,0.2-0.7v-4.3h0.4c0.3,0,0.5,0,0.7-0.1c0.2-0.1,0.2-0.2,0.2-0.5
					c0-0.4-0.3-0.6-0.9-0.6h-0.4v-0.4c0-0.3,0-0.6,0.1-0.7c0.1-0.2,0.3-0.3,0.6-0.3c0.1,0,0.2,0,0.4,0c0.2,0,0.3,0,0.3,0
					c0.1,0,0.3-0.1,0.3-0.2c0.1-0.1,0.2-0.2,0.2-0.4C264.3,423.4,263.9,423.1,262.9,423.1z"/>
				<path id="XMLID_926_" class="st2" d="M268.1,425.8c-0.3-0.2-0.6-0.3-1-0.3c-0.3,0-0.6,0.1-0.8,0.3c-0.2,0.2-0.4,0.4-0.6,0.8
					c0-0.3-0.1-0.6-0.2-0.8c-0.1-0.2-0.3-0.3-0.6-0.3c-0.5,0-0.8,0.4-0.8,1.1v4.5c0,0.3,0.1,0.6,0.2,0.7c0.1,0.2,0.3,0.3,0.6,0.3
					c0.2,0,0.4-0.1,0.6-0.2c0.2-0.2,0.2-0.4,0.2-0.7v-1.4c0-0.5,0-0.9,0-1.2c0-0.3,0.1-0.6,0.2-0.9c0.1-0.2,0.2-0.4,0.4-0.6
					c0.1-0.1,0.3-0.2,0.6-0.2c0.2,0,0.4,0,0.6,0.1c0.2,0.1,0.4,0.1,0.4,0.1c0.2,0,0.3-0.1,0.4-0.2c0.1-0.1,0.2-0.3,0.2-0.5
					C268.6,426.2,268.4,426,268.1,425.8z"/>
				<path id="XMLID_922_" class="st2" d="M274.2,429.1c0.2-0.1,0.4-0.4,0.4-0.8c0-0.4-0.1-0.9-0.3-1.3c-0.2-0.4-0.6-0.8-1-1
					c-0.5-0.3-1-0.4-1.6-0.4c-0.5,0-0.9,0.1-1.3,0.2c-0.4,0.2-0.7,0.4-1,0.7c-0.3,0.3-0.5,0.6-0.6,1.1c-0.1,0.4-0.2,0.9-0.2,1.3
					c0,1,0.3,1.8,0.9,2.4c0.6,0.6,1.4,0.9,2.4,0.9c0.5,0,0.9-0.1,1.2-0.2c0.3-0.1,0.6-0.3,0.9-0.4c0.2-0.2,0.4-0.4,0.5-0.6
					c0.1-0.2,0.2-0.4,0.2-0.5c0-0.2,0-0.3-0.2-0.4c-0.1-0.1-0.2-0.1-0.4-0.1c-0.2,0-0.3,0-0.4,0.1c-0.2,0.2-0.4,0.3-0.5,0.4
					c-0.1,0.1-0.3,0.2-0.4,0.3c-0.2,0.1-0.3,0.2-0.5,0.2c-0.2,0-0.3,0.1-0.5,0.1c-0.3,0-0.6-0.1-0.8-0.2c-0.2-0.1-0.4-0.4-0.6-0.6
					c-0.1-0.3-0.2-0.6-0.2-1h3.2C273.6,429.2,273.9,429.2,274.2,429.1z M270,428.3c0.1-0.5,0.2-1,0.5-1.2c0.3-0.3,0.6-0.4,1-0.4
					c0.4,0,0.8,0.1,1,0.4c0.3,0.3,0.4,0.7,0.4,1.2H270z"/>
				<path id="XMLID_919_" class="st2" d="M280.9,429.1c0.2-0.1,0.4-0.4,0.4-0.8c0-0.4-0.1-0.9-0.3-1.3c-0.2-0.4-0.6-0.8-1-1
					c-0.5-0.3-1-0.4-1.6-0.4c-0.5,0-0.9,0.1-1.3,0.2c-0.4,0.2-0.7,0.4-1,0.7c-0.3,0.3-0.5,0.6-0.6,1.1c-0.1,0.4-0.2,0.9-0.2,1.3
					c0,1,0.3,1.8,0.9,2.4c0.6,0.6,1.4,0.9,2.4,0.9c0.5,0,0.9-0.1,1.2-0.2c0.3-0.1,0.6-0.3,0.9-0.4c0.2-0.2,0.4-0.4,0.5-0.6
					c0.1-0.2,0.2-0.4,0.2-0.5c0-0.2,0-0.3-0.2-0.4c-0.1-0.1-0.2-0.1-0.4-0.1c-0.2,0-0.3,0-0.4,0.1c-0.2,0.2-0.4,0.3-0.5,0.4
					c-0.1,0.1-0.3,0.2-0.4,0.3c-0.2,0.1-0.3,0.2-0.5,0.2c-0.2,0-0.3,0.1-0.5,0.1c-0.3,0-0.6-0.1-0.8-0.2c-0.2-0.1-0.4-0.4-0.6-0.6
					c-0.1-0.3-0.2-0.6-0.2-1h3.2C280.4,429.2,280.7,429.2,280.9,429.1z M276.8,428.3c0.1-0.5,0.2-1,0.5-1.2c0.3-0.3,0.6-0.4,1-0.4
					c0.4,0,0.8,0.1,1,0.4c0.3,0.3,0.4,0.7,0.4,1.2H276.8z"/>
				<path id="XMLID_390_" class="st2" d="M286.9,425.9c-0.4-0.3-0.9-0.4-1.4-0.4c-0.4,0-0.8,0.1-1.1,0.3c-0.3,0.2-0.6,0.5-1,0.8
					v-0.2c0-0.3-0.1-0.5-0.2-0.7c-0.1-0.2-0.3-0.2-0.6-0.2c-0.2,0-0.4,0.1-0.6,0.2c-0.1,0.2-0.2,0.4-0.2,0.7v7
					c0,0.4,0.1,0.6,0.1,0.8c0.1,0.2,0.3,0.3,0.6,0.3c0.5,0,0.8-0.4,0.8-1.1V431c0.3,0.4,0.6,0.6,0.9,0.8c0.3,0.2,0.7,0.3,1.2,0.3
					c0.4,0,0.7-0.1,1.1-0.2c0.3-0.2,0.6-0.4,0.9-0.7c0.2-0.3,0.4-0.6,0.6-1c0.1-0.4,0.2-0.9,0.2-1.4c0-0.7-0.1-1.3-0.4-1.8
					C287.7,426.6,287.3,426.2,286.9,425.9z M286.5,429.9c-0.1,0.3-0.3,0.5-0.6,0.7c-0.2,0.2-0.5,0.2-0.7,0.2c-0.5,0-0.8-0.2-1.1-0.5
					c-0.3-0.4-0.5-0.9-0.5-1.5c0-0.7,0.2-1.2,0.5-1.6c0.3-0.3,0.7-0.5,1.1-0.5c0.3,0,0.5,0.1,0.8,0.2c0.2,0.2,0.4,0.4,0.5,0.7
					c0.1,0.3,0.2,0.7,0.2,1.1C286.7,429.2,286.6,429.6,286.5,429.9z"/>
				<path id="XMLID_389_" class="st2" d="M289.9,425.5c-0.2,0-0.4,0.1-0.6,0.2c-0.1,0.2-0.2,0.4-0.2,0.7v4.6c0,0.3,0.1,0.6,0.2,0.7
					c0.2,0.2,0.3,0.3,0.6,0.3c0.2,0,0.4-0.1,0.6-0.3c0.2-0.2,0.2-0.4,0.2-0.7v-4.7c0-0.3-0.1-0.5-0.2-0.7
					C290.3,425.6,290.1,425.5,289.9,425.5z"/>
				<path id="XMLID_388_" class="st2" d="M289.9,423.2c-0.2,0-0.4,0.1-0.6,0.2c-0.2,0.1-0.2,0.3-0.2,0.6c0,0.3,0.1,0.4,0.2,0.6
					c0.2,0.1,0.4,0.2,0.6,0.2c0.2,0,0.4-0.1,0.6-0.2c0.2-0.1,0.2-0.3,0.2-0.6c0-0.3-0.1-0.5-0.2-0.6
					C290.3,423.3,290.1,423.2,289.9,423.2z"/>
				<path id="XMLID_387_" class="st2" d="M297.3,430.6l-1.7-2.6l0.9-0.8c0.4-0.4,0.7-0.7,0.7-1c0-0.2-0.1-0.4-0.2-0.5
					c-0.1-0.1-0.3-0.2-0.5-0.2c-0.2,0-0.3,0-0.4,0.1c-0.1,0.1-0.3,0.3-0.5,0.5l-1.8,1.9v-3.9c0-0.3-0.1-0.6-0.2-0.8
					c-0.1-0.2-0.3-0.3-0.6-0.3c-0.3,0-0.5,0.1-0.6,0.3c-0.1,0.2-0.2,0.5-0.2,0.8v6.9c0,0.3,0.1,0.6,0.2,0.7c0.1,0.2,0.3,0.3,0.6,0.3
					c0.2,0,0.4-0.1,0.6-0.3c0.2-0.2,0.2-0.4,0.2-0.7v-1.3l0.9-0.8l1.4,2.4c0.2,0.3,0.3,0.5,0.4,0.6c0.1,0.1,0.3,0.2,0.5,0.2
					c0.2,0,0.4-0.1,0.6-0.2c0.1-0.2,0.2-0.4,0.2-0.6c0-0.1,0-0.2-0.1-0.3C297.5,430.9,297.4,430.8,297.3,430.6z"/>
				<path id="XMLID_386_" class="st2" d="M299.4,430.3c-0.3,0-0.5,0.1-0.6,0.3c-0.2,0.2-0.3,0.4-0.3,0.6c0,0.3,0.1,0.5,0.3,0.7
					c0.2,0.2,0.4,0.2,0.6,0.2c0.2,0,0.4-0.1,0.6-0.2c0.2-0.2,0.3-0.4,0.3-0.7c0-0.2-0.1-0.5-0.3-0.6
					C299.9,430.4,299.7,430.3,299.4,430.3z"/>
				<path id="XMLID_385_" class="st2" d="M306.8,429.4c-0.2,0-0.3,0.1-0.4,0.2c-0.1,0.1-0.2,0.2-0.3,0.4c-0.2,0.3-0.4,0.5-0.6,0.7
					c-0.2,0.2-0.5,0.2-0.8,0.2c-0.2,0-0.5,0-0.7-0.1c-0.2-0.1-0.4-0.2-0.5-0.4c-0.1-0.2-0.3-0.4-0.3-0.7c-0.1-0.3-0.1-0.5-0.1-0.8
					c0-0.6,0.1-1.2,0.4-1.5c0.3-0.4,0.7-0.6,1.2-0.6c0.3,0,0.6,0.1,0.8,0.2c0.2,0.1,0.4,0.4,0.6,0.7c0.1,0.2,0.2,0.3,0.3,0.3
					c0.1,0.1,0.2,0.1,0.3,0.1c0.2,0,0.4-0.1,0.5-0.2c0.1-0.1,0.2-0.3,0.2-0.5c0-0.2-0.1-0.4-0.2-0.6c-0.1-0.2-0.3-0.4-0.6-0.6
					c-0.2-0.2-0.5-0.4-0.9-0.5c-0.4-0.1-0.7-0.2-1.2-0.2c-0.7,0-1.3,0.1-1.7,0.4c-0.5,0.3-0.9,0.7-1.1,1.2c-0.3,0.5-0.4,1.1-0.4,1.8
					c0,1,0.3,1.8,0.8,2.3c0.6,0.6,1.3,0.9,2.3,0.9c0.5,0,0.9-0.1,1.3-0.2c0.4-0.1,0.7-0.3,0.9-0.5c0.2-0.2,0.4-0.4,0.6-0.7
					c0.1-0.2,0.2-0.4,0.2-0.6c0-0.2-0.1-0.3-0.2-0.5C307.2,429.5,307,429.4,306.8,429.4z"/>
				<path id="XMLID_382_" class="st2" d="M313.6,426.5c-0.3-0.3-0.6-0.5-1-0.7c-0.4-0.2-0.8-0.2-1.3-0.2c-0.5,0-0.9,0.1-1.3,0.2
					c-0.4,0.2-0.7,0.4-1,0.7c-0.3,0.3-0.5,0.6-0.6,1c-0.1,0.4-0.2,0.9-0.2,1.3c0,0.5,0.1,0.9,0.2,1.3c0.2,0.4,0.4,0.7,0.7,1
					c0.3,0.3,0.6,0.5,1,0.7c0.4,0.2,0.8,0.2,1.3,0.2c0.5,0,0.9-0.1,1.3-0.2c0.4-0.2,0.7-0.4,1-0.7c0.3-0.3,0.5-0.6,0.7-1
					c0.1-0.4,0.2-0.9,0.2-1.3c0-0.5-0.1-0.9-0.2-1.3C314.1,427.1,313.9,426.7,313.6,426.5z M312.5,430.4c-0.3,0.4-0.7,0.6-1.2,0.6
					c-0.3,0-0.6-0.1-0.8-0.3c-0.2-0.2-0.4-0.4-0.6-0.7c-0.1-0.3-0.2-0.7-0.2-1.1c0-0.4,0.1-0.8,0.2-1.1c0.1-0.3,0.3-0.6,0.6-0.7
					c0.2-0.2,0.5-0.2,0.8-0.2c0.5,0,0.9,0.2,1.2,0.6c0.3,0.4,0.4,0.9,0.4,1.5C312.9,429.5,312.7,430,312.5,430.4z"/>
				<path id="XMLID_381_" class="st2" d="M323.6,425.8c-0.3-0.2-0.7-0.3-1.1-0.3c-0.4,0-0.7,0.1-1,0.2c-0.3,0.2-0.6,0.4-0.9,0.7
					c-0.2-0.3-0.4-0.6-0.7-0.7c-0.3-0.2-0.6-0.2-1-0.2c-0.4,0-0.7,0.1-1.1,0.2c-0.3,0.2-0.6,0.4-0.9,0.7v-0.2c0-0.3-0.1-0.5-0.2-0.6
					c-0.2-0.1-0.3-0.2-0.6-0.2c-0.2,0-0.4,0.1-0.6,0.2c-0.1,0.2-0.2,0.4-0.2,0.7v4.6c0,0.3,0.1,0.6,0.2,0.8c0.2,0.2,0.4,0.3,0.6,0.3
					c0.2,0,0.4-0.1,0.6-0.3c0.1-0.2,0.2-0.4,0.2-0.8v-2.2c0-0.7,0.1-1.2,0.3-1.6c0.2-0.4,0.5-0.6,1-0.6c0.3,0,0.5,0.1,0.6,0.2
					c0.1,0.1,0.2,0.3,0.2,0.6c0,0.2,0,0.5,0,1v2.6c0,0.3,0.1,0.6,0.2,0.8c0.1,0.2,0.3,0.3,0.6,0.3c0.3,0,0.5-0.1,0.6-0.3
					c0.2-0.2,0.2-0.4,0.2-0.8V429c0-0.7,0.1-1.2,0.2-1.5c0.1-0.2,0.3-0.4,0.5-0.5c0.2-0.1,0.4-0.2,0.6-0.2c0.3,0,0.5,0.1,0.6,0.2
					c0.1,0.1,0.2,0.3,0.2,0.5c0,0.2,0,0.5,0,0.8v2.7c0,0.3,0.1,0.6,0.2,0.8c0.2,0.2,0.4,0.3,0.6,0.3c0.3,0,0.5-0.1,0.6-0.3
					c0.2-0.2,0.2-0.4,0.2-0.8v-3.2c0-0.6-0.1-1.1-0.2-1.4C324.1,426.2,323.9,426,323.6,425.8z"/>
			</g>
			<g id="XMLID_366_">
				<path id="XMLID_379_" class="st2" d="M245.3,428.4C245.3,428.4,245.3,428.4,245.3,428.4C245.3,428.4,245.3,428.4,245.3,428.4z"
					/>
				<path id="XMLID_378_" class="st2" d="M245.4,429C245.4,429,245.4,429,245.4,429c0-0.1-0.1-0.3-0.1-0.4
					C245.3,428.7,245.3,428.8,245.4,429z"/>
				<path id="XMLID_377_" class="st2" d="M245.9,430.5C245.9,430.5,245.9,430.5,245.9,430.5C245.9,430.5,245.9,430.5,245.9,430.5z"
					/>
				<path id="XMLID_376_" class="st2" d="M245.8,430.4C245.8,430.3,245.8,430.3,245.8,430.4C245.8,430.3,245.8,430.3,245.8,430.4z"
					/>
				<path id="XMLID_375_" class="st2" d="M245.5,429.5c0.1,0.3,0.2,0.5,0.3,0.7C245.7,430,245.6,429.8,245.5,429.5L245.5,429.5z"/>
				<path id="XMLID_374_" class="st2" d="M250.7,421.7l-0.1-0.3c0.3-0.1,0.5-0.3,0.5-0.6c0-0.4-0.3-0.7-0.7-0.7
					c-0.4,0-0.7,0.3-0.7,0.7c0,0.3,0.2,0.6,0.5,0.6l0.1,0.3c-1,0.1-1.8,0.5-1.8,0.5l0.1,0.4c0.6-0.2,1.2-0.3,1.6-0.4
					c0.5-0.1,0.8-0.1,1.1-0.1c0.3,0,0.5,0,0.8,0.1l0.1-0.5C252.4,421.8,251.7,421.6,250.7,421.7z"/>
				<path id="XMLID_373_" class="st2" d="M245.5,424.2c0,0-0.5,0.5-0.9,1.3c0,0,0-0.1-0.1-0.1c-0.1-0.1-0.3-0.2-0.5-0.2c0,0,0,0,0,0
					c-0.1,0-0.2,0-0.3-0.1c0.1-0.1,0.1-0.2,0.1-0.3c0-0.2-0.2-0.4-0.4-0.4c-0.2,0-0.4,0.2-0.4,0.4c0,0.2,0.2,0.4,0.4,0.4
					c0,0,0.1,0,0.1,0c0.1,0.1,0.3,0.2,0.5,0.2c0.1,0,0.2,0,0.3,0.1c0.1,0.1,0.1,0.2,0.1,0.3c0,0,0,0,0,0c-0.3,0.7-0.2,1.7-0.2,1.7
					l0.7,0c0-0.3,0.1-0.9,0.2-1.4c0.3-0.9,0.7-1.5,0.8-1.5l0,0c0,0,0-0.1,0.1-0.1l-0.2-0.1L245.5,424.2z"/>
				<path id="XMLID_372_" class="st2" d="M257.3,422.8c-0.2,0-0.4,0.2-0.4,0.4c0,0,0,0.1,0,0.1c-0.1,0.1-0.2,0.3-0.2,0.5
					c0,0.1,0,0.2-0.1,0.3c-0.1,0-0.1,0.1-0.2,0.1c-0.5-0.7-1.1-1.1-1.1-1.1l-0.5,0.5c0.4,0.3,0.7,0.7,1.1,1.2
					c0.2,0.4,0.5,0.8,0.7,1.3l0.6-0.3c0,0-0.3-0.7-0.7-1.4c0.1,0,0.1-0.1,0.2-0.1c0.1-0.1,0.2-0.3,0.2-0.5c0-0.1,0-0.2,0.1-0.3
					c0.1,0.1,0.2,0.1,0.3,0.1c0.2,0,0.4-0.2,0.4-0.4C257.7,423,257.5,422.8,257.3,422.8z"/>
				<path id="XMLID_371_" class="st2" d="M255.6,428.5c-0.9,0.4-2.3,1-4.2,1.3c-0.7,0.1-1.5,0.1-2.1,0.1c-0.9,0-1.6-0.1-2.2-0.1
					c-0.7-0.1-1.2-0.2-1.5-0.3c0.1,0.2,0.2,0.5,0.3,0.7c0,0,0,0,0,0c0,0,0,0.1,0,0.1c0,0,0,0.1,0,0.1c0,0,0,0,0,0
					c0.2,0.4,0.4,0.7,0.7,1c0.9,1,1.8,1.1,1.8,1.1l0,0l0,0c0,0,0.8,0.3,2.1,0.3c1.2,0,2.4-0.2,3.5-0.7c0.8-0.4,1.6-1.1,2-1.7
					c0.3-0.5,0.5-0.9,0.7-1.4c0.1-0.3,0.1-0.7,0.1-1.1C256.6,428,256.2,428.3,255.6,428.5z"/>
				<path id="XMLID_367_" class="st2" d="M252.3,422.7c-0.3,0-0.5-0.1-0.8-0.1c-0.3,0-0.6,0-1.1,0.1c-0.5,0-1,0.2-1.6,0.4
					c-0.8,0.3-1.6,0.7-2.2,1.3l0,0c-0.1,0.1-0.3,0.3-0.5,0.5c0,0-0.4,0.6-0.7,1.4c-0.2,0.6-0.2,1.5-0.2,1.5v0c0,0.2,0,0.4,0,0.6
					c0,0,0,0,0,0c0,0,0,0.1,0,0.1c0,0.1,0,0.3,0.1,0.4c0.4,0.1,3,0.7,6,0.3c1.8-0.3,3.2-0.8,4.1-1.2c0.7-0.3,1.2-0.6,1.3-0.8
					c-0.2-0.6-0.7-1.6-1.1-2.3C254.4,423.2,253,422.8,252.3,422.7z M248.7,427.9c-1,0-1.8-0.8-1.8-1.8c0-1,0.8-1.8,1.8-1.8
					c1,0,1.8,0.8,1.8,1.8C250.4,427.1,249.7,427.9,248.7,427.9z M253.8,426.6c-0.6,0-1.1-0.5-1.1-1.1c0-0.6,0.5-1.1,1.1-1.1
					c0.6,0,1.1,0.5,1.1,1.1C254.9,426.1,254.4,426.6,253.8,426.6z"/>
			</g>
		</g>
	</g>
</g>
</svg>
